<svg width="18" height="18" viewBox="0 0 18 18" fill="none" xmlns="http://www.w3.org/2000/svg">
<path d="M16.8047 9.00003C16.805 10.5439 16.3474 12.0531 15.4899 13.3369C14.6323 14.6207 13.4133 15.6213 11.9869 16.2121C10.5606 16.803 8.99112 16.9575 7.47695 16.6562C5.96279 16.355 4.57198 15.6114 3.48047 14.5196C2.75352 13.7964 2.17724 12.9361 1.78499 11.9887C1.39274 11.0413 1.19231 10.0254 1.19532 9.00003H2.24719C2.24719 12.7234 5.2766 15.7528 9 15.7528C12.7234 15.7528 15.7528 12.7234 15.7528 9.00003C15.7528 5.27663 12.7234 2.24722 9 2.24722C8.08227 2.24721 7.17419 2.43453 6.33139 2.79772C5.48858 3.16091 4.72878 3.69232 4.09852 4.35941H6.15235V5.41128H2.46094V1.72269H3.51317V3.45589C4.60739 2.37258 5.99769 1.63726 7.50898 1.34252C9.02028 1.04778 10.585 1.20681 12.0061 1.79957C13.4272 2.39234 14.6411 3.39234 15.495 4.67364C16.3489 5.95495 16.8046 7.46027 16.8047 9.00003ZM8.78907 4.88675V9.84378H13.1133V8.7891H9.84375V4.88675H8.78907Z" fill="white" stroke="white" stroke-width="0.2"/>
</svg>
