<svg width="20" height="20" viewBox="0 0 20 20" fill="none" xmlns="http://www.w3.org/2000/svg">
<path d="M18.125 10V17.5C18.125 17.6658 18.0592 17.8247 17.9419 17.9419C17.8247 18.0592 17.6658 18.125 17.5 18.125H2.5C2.33424 18.125 2.17527 18.0592 2.05806 17.9419C1.94085 17.8247 1.875 17.6658 1.875 17.5V2.5C1.875 2.33424 1.94085 2.17527 2.05806 2.05806C2.17527 1.94085 2.33424 1.875 2.5 1.875H10C10.1658 1.875 10.3247 1.94085 10.4419 2.05806C10.5592 2.17527 10.625 2.33424 10.625 2.5C10.625 2.66576 10.5592 2.82473 10.4419 2.94194C10.3247 3.05915 10.1658 3.125 10 3.125H3.125V16.875H16.875V10C16.875 9.83424 16.9408 9.67527 17.0581 9.55806C17.1753 9.44085 17.3342 9.375 17.5 9.375C17.6658 9.375 17.8247 9.44085 17.9419 9.55806C18.0592 9.67527 18.125 9.83424 18.125 10ZM6.5375 10.0812L13.9313 2.68125C14.3805 2.23204 14.9897 1.97968 15.625 1.97968C16.2603 1.97968 16.8695 2.23204 17.3187 2.68125C17.768 3.13046 18.0203 3.73972 18.0203 4.375C18.0203 5.01028 17.768 5.61954 17.3187 6.06875L9.91875 13.4625C9.85199 13.5299 9.77077 13.5812 9.68125 13.6125L5.83125 14.9625C5.7651 14.9865 5.69537 14.9992 5.625 15C5.52541 14.9996 5.42735 14.9754 5.33901 14.9294C5.25066 14.8835 5.17458 14.8171 5.11709 14.7357C5.05961 14.6544 5.0224 14.5605 5.00855 14.4619C4.99471 14.3633 5.00463 14.2628 5.0375 14.1687L6.3875 10.3188C6.41883 10.2292 6.47013 10.148 6.5375 10.0812ZM6.64375 13.3563L9.14375 12.4812L16.4313 5.18125C16.6451 4.96742 16.7652 4.6774 16.7652 4.375C16.7652 4.0726 16.6451 3.78258 16.4313 3.56875C16.2174 3.35492 15.9274 3.23479 15.625 3.23479C15.3226 3.23479 15.0326 3.35492 14.8187 3.56875L7.5 10.8625L6.64375 13.3563Z" fill="#231F20"/>
</svg>
