<svg width="17" height="17" viewBox="0 0 17 17" fill="none" xmlns="http://www.w3.org/2000/svg">
<path d="M4.25 7.79175C4.25 5.78828 4.25 4.78654 4.8724 4.16415C5.4948 3.54175 6.49653 3.54175 8.5 3.54175H10.625C12.6284 3.54175 13.6302 3.54175 14.2526 4.16415C14.875 4.78654 14.875 5.78828 14.875 7.79175V11.3334C14.875 13.3369 14.875 14.3386 14.2526 14.961C13.6302 15.5834 12.6284 15.5834 10.625 15.5834H8.5C6.49653 15.5834 5.4948 15.5834 4.8724 14.961C4.25 14.3386 4.25 13.3369 4.25 11.3334V7.79175Z" stroke="black"/>
<path d="M4.25 13.4584C3.0764 13.4584 2.125 12.5071 2.125 11.3334V7.08341C2.125 4.41212 2.125 3.07648 2.95486 2.24661C3.78473 1.41675 5.12037 1.41675 7.79167 1.41675H10.625C11.7986 1.41675 12.75 2.36815 12.75 3.54175" stroke="black"/>
</svg>
