<svg width="16" height="16" viewBox="0 0 16 16" fill="none" xmlns="http://www.w3.org/2000/svg">
<path d="M11.5556 12.0556H12.0556V11.5556V10.2778H12.8333V11.5556V12.0556H13.3333H14.6111V12.8333H13.3333H12.8333V13.3333V14.6111H12.0556V13.3333V12.8333H11.5556H10.2778V12.0556H11.5556ZM0.888889 0.5H6.22222C6.32536 0.5 6.42428 0.540972 6.49721 0.613903C6.57014 0.686834 6.61111 0.785749 6.61111 0.888889V6.22222C6.61111 6.32536 6.57014 6.42428 6.49721 6.49721C6.42428 6.57014 6.32536 6.61111 6.22222 6.61111H0.888889C0.785749 6.61111 0.686834 6.57014 0.613903 6.49721C0.540972 6.42428 0.5 6.32536 0.5 6.22222V0.888889C0.5 0.785749 0.540972 0.686834 0.613903 0.613903C0.686834 0.540972 0.785749 0.5 0.888889 0.5ZM9.77778 0.5H15.1111C15.2143 0.5 15.3132 0.540972 15.3861 0.613902C15.459 0.686833 15.5 0.785748 15.5 0.888889V6.22222C15.5 6.32536 15.459 6.42428 15.3861 6.49721C15.3132 6.57014 15.2143 6.61111 15.1111 6.61111H9.77778C9.67464 6.61111 9.57572 6.57014 9.50279 6.49721C9.42986 6.42428 9.38889 6.32536 9.38889 6.22222V0.888889C9.38889 0.785749 9.42986 0.686834 9.50279 0.613903C9.57572 0.540972 9.67464 0.5 9.77778 0.5ZM0.888889 9.38889H6.22222C6.32536 9.38889 6.42428 9.42986 6.49721 9.50279C6.57014 9.57572 6.61111 9.67464 6.61111 9.77778V15.1111C6.61111 15.2143 6.57014 15.3132 6.49721 15.3861C6.42428 15.459 6.32536 15.5 6.22222 15.5H0.888889C0.785748 15.5 0.686833 15.459 0.613903 15.3861C0.540972 15.3132 0.5 15.2143 0.5 15.1111V9.77778C0.5 9.67464 0.540972 9.57572 0.613902 9.50279C0.686834 9.42986 0.785749 9.38889 0.888889 9.38889Z" stroke="black"/>
</svg>
