<svg width="25" height="25" viewBox="0 0 25 25" fill="none" xmlns="http://www.w3.org/2000/svg">
<path d="M5 6.24536C4.30965 6.24536 3.75 6.805 3.75 7.49536V8.12036C3.75 8.46554 3.47018 8.74536 3.125 8.74536C2.77983 8.74536 2.5 8.46554 2.5 8.12036V7.49536C2.5 6.11465 3.61929 4.99536 5 4.99536H5.625C5.97018 4.99536 6.25 5.27517 6.25 5.62036C6.25 5.96554 5.97018 6.24536 5.625 6.24536H5ZM3.75 16.2548C3.75 16.945 4.30965 17.5048 5 17.5048H5.3125C5.65768 17.5048 5.9375 17.7845 5.9375 18.1298C5.9375 18.4749 5.65768 18.7548 5.3125 18.7548H5C3.61929 18.7548 2.5 17.6354 2.5 16.2548V15.6298C2.5 15.2845 2.77983 15.0048 3.125 15.0048C3.47018 15.0048 3.75 15.2845 3.75 15.6298V16.2548ZM3.75 10.625C3.75 10.2799 3.47018 10 3.125 10C2.77983 10 2.5 10.2799 2.5 10.625V13.125C2.5 13.4702 2.77983 13.75 3.125 13.75C3.47018 13.75 3.75 13.4702 3.75 13.125V10.625ZM20 6.24536C20.6904 6.24536 21.25 6.805 21.25 7.49536V8.12036C21.25 8.46554 21.5299 8.74536 21.875 8.74536C22.2201 8.74536 22.5 8.46554 22.5 8.12036V7.49536C22.5 6.11465 21.3808 4.99536 20 4.99536H19.375C19.0299 4.99536 18.75 5.27517 18.75 5.62036C18.75 5.96554 19.0299 6.24536 19.375 6.24536H20ZM20 17.5048C20.6904 17.5048 21.25 16.945 21.25 16.2548V15.6298C21.25 15.2845 21.5299 15.0048 21.875 15.0048C22.2201 15.0048 22.5 15.2845 22.5 15.6298V16.2548C22.5 17.6354 21.3808 18.7548 20 18.7548H19.6846C19.3395 18.7548 19.0596 18.4749 19.0596 18.1298C19.0596 17.7845 19.3395 17.5048 19.6846 17.5048H20ZM21.875 10C21.5299 10 21.25 10.2799 21.25 10.625V13.125C21.25 13.4702 21.5299 13.75 21.875 13.75C22.2201 13.75 22.5 13.4702 22.5 13.125V10.625C22.5 10.2799 22.2201 10 21.875 10ZM8.125 4.99536C7.77983 4.99536 7.5 5.27517 7.5 5.62036C7.5 5.96554 7.77983 6.24536 8.125 6.24536H11.25C11.5952 6.24536 11.875 5.96554 11.875 5.62036C11.875 5.27517 11.5952 4.99536 11.25 4.99536H8.125ZM13.125 5.62036C13.125 5.27517 13.4049 4.99536 13.75 4.99536H16.875C17.2201 4.99536 17.5 5.27517 17.5 5.62036C17.5 5.96554 17.2201 6.24536 16.875 6.24536H13.75C13.4049 6.24536 13.125 5.96554 13.125 5.62036ZM9.01981 10.1095C8.73181 10.2998 8.65356 10.6869 8.84504 10.9741L11.7437 15.3219L10.1963 17.6429C9.64462 17.4514 9.02383 17.451 8.43981 17.6869C7.15909 18.2042 6.54034 19.6613 7.05778 20.9415C7.57523 22.2217 9.03293 22.8402 10.3137 22.3229C11.5944 21.8058 12.2131 20.3487 11.6957 19.0684C11.5835 18.7909 11.4271 18.5444 11.2379 18.3339L12.4948 16.4485L13.7559 18.3402C13.5693 18.5493 13.4149 18.7937 13.3037 19.0684C12.7864 20.3487 13.4051 21.8057 14.6858 22.3229C15.9665 22.8402 17.4243 22.2217 17.9416 20.9415C18.4591 19.6613 17.8404 18.2042 16.5596 17.6869C15.9729 17.4499 15.3489 17.4514 14.7952 17.6457L13.246 15.3219L13.2486 15.3179L12.4975 14.1912L12.4948 14.1952L9.88797 10.285C9.69651 9.99784 9.30781 9.91926 9.01981 10.1095ZM15.6245 21.25C14.9341 21.25 14.3745 20.6904 14.3745 20C14.3745 19.3097 14.9341 18.75 15.6245 18.75C16.3148 18.75 16.8745 19.3097 16.8745 20C16.8745 20.6904 16.3148 21.25 15.6245 21.25ZM9.375 21.25C8.68465 21.25 8.125 20.6904 8.125 20C8.125 19.3097 8.68465 18.75 9.375 18.75C10.0654 18.75 10.625 19.3097 10.625 20C10.625 20.6904 10.0654 21.25 9.375 21.25ZM13.2486 13.0645L13.9999 14.1912L16.1446 10.9741C16.3361 10.6869 16.2579 10.2998 15.9699 10.1095C15.6819 9.91926 15.2931 9.99784 15.1017 10.285L13.2486 13.0645Z" fill="#444746" stroke="#444746" stroke-width="0.3"/>
</svg>
