<svg width="20" height="20" viewBox="0 0 20 20" fill="none" xmlns="http://www.w3.org/2000/svg">
<path d="M10.3698 0.477917C10.2268 0.321513 10.0247 0.232422 9.81277 0.232422C9.60081 0.232422 9.39872 0.321513 9.2557 0.477917L5.22986 4.88116C4.94855 5.18883 4.96993 5.6663 5.2776 5.9476C5.58529 6.22891 6.06274 6.20753 6.34405 5.89985L9.05793 2.93153V14.0712C9.05793 14.4881 9.3959 14.826 9.81277 14.826C10.2296 14.826 10.5676 14.4881 10.5676 14.0712V2.93153L13.2815 5.89985C13.5628 6.20753 14.0403 6.22891 14.348 5.9476C14.6556 5.6663 14.677 5.18883 14.3957 4.88116L10.3698 0.477917Z" fill="black"/>
<path d="M1.50968 13.0649C1.50968 12.648 1.17174 12.3101 0.754842 12.3101C0.337958 12.3101 5.27335e-07 12.648 5.27335e-07 13.0649V13.1202C-1.96018e-05 14.4966 -3.9803e-05 15.606 0.117273 16.4786C0.239074 17.3845 0.499635 18.1472 1.10544 18.753C1.71125 19.3589 2.47401 19.6194 3.37993 19.7412C4.2525 19.8585 5.36193 19.8585 6.73835 19.8585H12.8876C14.264 19.8585 15.3734 19.8585 16.246 19.7412C17.1519 19.6194 17.9146 19.3589 18.5205 18.753C19.1263 18.1472 19.3869 17.3845 19.5086 16.4786C19.6259 15.606 19.6259 14.4966 19.6259 13.1202V13.0649C19.6259 12.648 19.2879 12.3101 18.871 12.3101C18.4542 12.3101 18.1162 12.648 18.1162 13.0649C18.1162 14.5096 18.1146 15.5171 18.0124 16.2774C17.9131 17.0159 17.7315 17.407 17.4529 17.6855C17.1744 17.9641 16.7834 18.1457 16.0448 18.245C15.2845 18.3472 14.277 18.3488 12.8323 18.3488H6.79358C5.3489 18.3488 4.34132 18.3472 3.58109 18.245C2.84258 18.1457 2.45149 17.9641 2.17295 17.6855C1.8944 17.407 1.71279 17.0159 1.6135 16.2774C1.51128 15.5171 1.50968 14.5096 1.50968 13.0649Z" fill="black"/>
</svg>
