<svg width="14" height="19" viewBox="0 0 14 19" fill="none" xmlns="http://www.w3.org/2000/svg">
<path d="M9.39635 1.01432L9.39633 1.01427C9.304 0.842037 9.15401 0.6973 8.96357 0.605098C8.88282 0.566181 8.76763 0.534974 8.54656 0.517866C8.3202 0.500349 8.02783 0.5 7.60001 0.5H6.40001C5.97168 0.5 5.67906 0.500349 5.45271 0.517866C5.23153 0.534982 5.1169 0.566193 5.03696 0.604848C4.84675 0.697152 4.69698 0.84188 4.60482 1.01404L4.60437 1.01487C4.56782 1.08282 4.53629 1.18266 4.51866 1.38711C4.50044 1.59826 4.50001 1.87229 4.50001 2.28V8.55V9.05H4.00001H2.80301C2.35157 9.05 2.04575 9.05043 1.82506 9.06912C1.63897 9.08487 1.58172 9.11018 1.57608 9.112C1.54979 9.13439 1.53086 9.16035 1.51888 9.18696C1.50801 9.21112 1.50271 9.23611 1.50256 9.26075C1.50868 9.2733 1.53517 9.32722 1.62979 9.44034C1.766 9.6032 1.97498 9.81244 2.28698 10.1234L6.4848 14.3032L6.48562 14.3041C6.64232 14.4608 6.73852 14.5562 6.81614 14.6216C6.88744 14.6817 6.91164 14.6887 6.91291 14.6891L6.91295 14.6891L6.91369 14.6894C6.96945 14.7071 7.03056 14.7071 7.08633 14.6894L7.08706 14.6891L7.08711 14.6891C7.08837 14.6887 7.11258 14.6817 7.18387 14.6216C7.2615 14.5562 7.3577 14.4608 7.51439 14.3041L7.51517 14.3033L11.713 10.1225C12.0248 9.8117 12.2338 9.60293 12.3704 9.44003C12.4652 9.32712 12.492 9.27301 12.4984 9.25998C12.498 9.23575 12.4927 9.21121 12.482 9.18747C12.4699 9.16067 12.4507 9.13453 12.4241 9.11206C12.419 9.11053 12.3621 9.08498 12.1746 9.06912C11.9538 9.05043 11.6479 9.05 11.197 9.05H10H9.50001V8.55V2.28C9.50001 1.87186 9.49958 1.59744 9.48146 1.38614C9.4639 1.18136 9.4325 1.08174 9.39635 1.01432ZM7.86801 14.6576C7.56601 14.9597 7.41501 15.1097 7.23801 15.1658C7.08356 15.215 6.91645 15.215 6.76201 15.1658L7.86801 14.6576Z" stroke="black"/>
<path d="M13.4204 17.7854C13.4638 17.7549 13.4847 17.7282 13.4936 17.7133C13.4976 17.7065 13.4992 17.7022 13.4998 17.7C13.4992 17.6978 13.4976 17.6935 13.4936 17.6867C13.4847 17.6718 13.4638 17.6451 13.4204 17.6146C13.3297 17.5511 13.1794 17.5 13 17.5H1C0.820592 17.5 0.670347 17.5511 0.579624 17.6146C0.536173 17.6451 0.515254 17.6718 0.506428 17.6867C0.502431 17.6935 0.500813 17.6978 0.500199 17.7C0.500813 17.7022 0.502432 17.7065 0.506429 17.7133C0.515254 17.7282 0.536174 17.7549 0.579623 17.7854L0.298546 18.1869L0.579624 17.7854C0.670347 17.8489 0.820592 17.9 1 17.9H13C13.1794 17.9 13.3297 17.8489 13.4204 17.7854L13.7071 18.195L13.4204 17.7854Z" stroke="black"/>
</svg>
