<svg width="19" height="19" viewBox="0 0 19 19" fill="none" xmlns="http://www.w3.org/2000/svg">
<g clip-path="url(#clip0_2_260)">
<path d="M9.50001 16.4167C13.8723 16.4167 17.4167 12.8723 17.4167 8.50004C17.4167 4.12779 13.8723 0.583374 9.50001 0.583374C5.12776 0.583374 1.58334 4.12779 1.58334 8.50004C1.58334 12.8723 5.12776 16.4167 9.50001 16.4167Z" stroke="white" stroke-width="1.4" stroke-linecap="round" stroke-linejoin="round"/>
<path d="M7.19626 6.12496C7.38238 5.59587 7.74975 5.14971 8.23331 4.86553C8.71686 4.58134 9.28538 4.47746 9.83819 4.57228C10.391 4.6671 10.8924 4.9545 11.2536 5.38359C11.6148 5.81268 11.8125 6.35575 11.8117 6.91663C11.8117 8.49996 9.43668 9.29163 9.43668 9.29163" stroke="white" stroke-width="1.4" stroke-linecap="round" stroke-linejoin="round"/>
<path d="M9.5 12.4584H9.50833" stroke="white" stroke-width="1.4" stroke-linecap="round" stroke-linejoin="round"/>
</g>
<defs>
<clipPath id="clip0_2_260">
<rect width="19" height="19" fill="white"/>
</clipPath>
</defs>
</svg>
