<svg width="24" height="24" viewBox="0 0 24 24" fill="none" xmlns="http://www.w3.org/2000/svg">
<path d="M17.9293 14.4507L18.1 14.6214V14.38V14C18.1 13.7613 18.1948 13.5324 18.3636 13.3636C18.5324 13.1948 18.7613 13.1 19 13.1C19.2387 13.1 19.4676 13.1948 19.6364 13.3636C19.8052 13.5324 19.9 13.7613 19.9 14V19C19.9 19.7691 19.5945 20.5068 19.0506 21.0506C18.5068 21.5945 17.7691 21.9 17 21.9H5C4.23087 21.9 3.49325 21.5945 2.94939 21.0506C2.40553 20.5068 2.1 19.7691 2.1 19V7.00002C2.1 6.23089 2.40553 5.49326 2.94939 4.94941C3.49325 4.40555 4.23087 4.10002 5 4.10002H12C12.2387 4.10002 12.4676 4.19484 12.6364 4.36362C12.8052 4.53241 12.9 4.76132 12.9 5.00002C12.9 5.23871 12.8052 5.46763 12.6364 5.63641C12.4676 5.8052 12.2387 5.90002 12 5.90002H5C4.70826 5.90002 4.42847 6.01591 4.22218 6.2222C4.01589 6.42849 3.9 6.70828 3.9 7.00002V12.6V12.8414L4.07071 12.6707L5.54983 11.1916C6.06102 10.7054 6.73951 10.4343 7.445 10.4343C8.15049 10.4343 8.82898 10.7054 9.34017 11.1916L11.8193 13.6707L11.89 13.7414L11.9607 13.6707L12.6604 12.971C12.6605 12.971 12.6605 12.9709 12.6606 12.9709C13.1644 12.4711 13.8453 12.1906 14.555 12.1906C15.2647 12.1906 15.9456 12.4711 16.4495 12.9709C16.4495 12.9709 16.4495 12.971 16.4496 12.971L17.9293 14.4507ZM3.92929 15.3593L3.9 15.3886V15.43V19C3.9 19.2918 4.01589 19.5715 4.22218 19.7778C4.42847 19.9841 4.70826 20.1 5 20.1H15.46H15.7014L15.5307 19.9293L11.2307 15.6293L8.06071 12.4593L8.06073 12.4593L8.05899 12.4576C7.89348 12.2999 7.67362 12.2119 7.445 12.2119C7.21638 12.2119 6.99652 12.2999 6.83101 12.4576L6.83099 12.4576L6.82929 12.4593L3.92929 15.3593ZM18.1 19.0008V19V17.21V17.1688L18.071 17.1396L15.1814 14.23C15.1813 14.2299 15.1813 14.2299 15.1812 14.2298C15.1002 14.1472 15.0036 14.0816 14.897 14.0368C14.7903 13.992 14.6757 13.9689 14.56 13.9689C14.4443 13.9689 14.3297 13.992 14.223 14.0368C14.1165 14.0816 14.0199 14.1471 13.939 14.2296C13.9389 14.2297 13.9387 14.2299 13.9386 14.23L13.2393 14.9293L13.1687 14.9999L13.2391 15.0706L17.7491 19.6006L17.8304 19.6822L17.8998 19.5903C18.0282 19.4205 18.0984 19.2137 18.1 19.0008ZM22.6393 4.36073L22.6396 4.36102C22.7239 4.44469 22.7909 4.54423 22.8366 4.6539C22.8823 4.76357 22.9058 4.88121 22.9058 5.00002C22.9058 5.11883 22.8823 5.23646 22.8366 5.34614C22.7909 5.45581 22.7239 5.55535 22.6396 5.63902L22.639 5.6396C22.5553 5.72395 22.4558 5.79091 22.3461 5.8366C22.2364 5.88229 22.1188 5.90582 22 5.90582C21.8812 5.90582 21.7636 5.88229 21.6539 5.8366C21.5442 5.79091 21.4447 5.72395 21.361 5.6396L21.361 5.63958L20.071 4.33958L19.9 4.16727V4.41002V10C19.9 10.2387 19.8052 10.4676 19.6364 10.6364C19.4676 10.8052 19.2387 10.9 19 10.9C18.7613 10.9 18.5324 10.8052 18.3636 10.6364C18.1948 10.4676 18.1 10.2387 18.1 10V4.41002V4.16727L17.929 4.33958L16.6393 5.63931C16.6393 5.63932 16.6393 5.63932 16.6393 5.63933C16.4697 5.80887 16.2398 5.90411 16 5.90411C15.7602 5.90411 15.5303 5.80886 15.3607 5.63931C15.1912 5.46976 15.0959 5.2398 15.0959 5.00002C15.0959 4.88129 15.1193 4.76373 15.1647 4.65404C15.2102 4.54435 15.2768 4.44468 15.3607 4.36073L18.3592 1.36226C18.3594 1.36201 18.3597 1.36176 18.3599 1.36152C18.4454 1.27993 18.546 1.21596 18.6562 1.17326L18.6562 1.17327L18.658 1.17252C18.8771 1.0825 19.1229 1.0825 19.342 1.17252L19.342 1.17254L19.3438 1.17326C19.454 1.21596 19.5546 1.27993 19.6401 1.36152C19.6403 1.36176 19.6406 1.36201 19.6408 1.36226L22.6393 4.36073Z" fill="#444746" stroke="white" stroke-width="0.2"/>
</svg>
