<svg width="21" height="21" viewBox="0 0 21 21" fill="none" xmlns="http://www.w3.org/2000/svg">
<g clip-path="url(#clip0_21_251)">
<path d="M13.3 17.5V18.2C13.6866 18.2 14 17.8865 14 17.5H13.3ZM7.7 17.5H7C7 17.8865 7.3134 18.2 7.7 18.2V17.5ZM8.4 21H12.6V19.6H8.4V21ZM5.01305 8.95878L4.99898 9.05729L6.3849 9.25527L6.39898 9.15678L5.01305 8.95878ZM10.5 4.2C7.74168 4.2 5.40313 6.22821 5.01305 8.95878L6.39898 9.15678C6.69053 7.11591 8.43839 5.6 10.5 5.6V4.2ZM15.9869 8.9588C15.5968 6.22822 13.2583 4.2 10.5 4.2V5.6C12.5616 5.6 14.3094 7.11592 14.601 9.15678L15.9869 8.9588ZM16.001 9.0573L15.9869 8.9588L14.601 9.15678L14.615 9.25527L16.001 9.0573ZM14.8959 13.2425C15.7774 12.1036 16.2239 10.6176 16.001 9.0573L14.615 9.25527C14.7819 10.4236 14.4493 11.5322 13.7887 12.3856L14.8959 13.2425ZM12.6 15.2618V17.5H14V15.2618H12.6ZM13.3 16.8H7.7V18.2H13.3V16.8ZM8.4 17.5V15.2618H7V17.5H8.4ZM4.99898 9.05729C4.77607 10.6176 5.22259 12.1036 6.10413 13.2425L7.21123 12.3856C6.5507 11.5322 6.218 10.4236 6.3849 9.25527L4.99898 9.05729ZM8.4 15.2618C8.4 14.1085 7.78693 13.1294 7.21123 12.3856L6.10413 13.2425C6.64083 13.936 7 14.5978 7 15.2618H8.4ZM13.7887 12.3856C13.2131 13.1294 12.6 14.1085 12.6 15.2618H14C14 14.5978 14.3591 13.9359 14.8959 13.2425L13.7887 12.3856ZM9.8 0V2.8H11.2V0H9.8ZM0 11.2H2.8V9.8H0V11.2ZM18.2 11.2H21V9.8H18.2V11.2ZM4.69497 5.10503L2.59497 3.00503L1.60503 3.99497L3.70503 6.09497L4.69497 5.10503ZM17.295 6.09497L19.395 3.99497L18.405 3.00503L16.305 5.10503L17.295 6.09497Z" fill="black"/>
</g>
<defs>
<clipPath id="clip0_21_251">
<rect width="21" height="21" fill="white"/>
</clipPath>
</defs>
</svg>
