<svg width="13" height="19" viewBox="0 0 13 19" fill="none" xmlns="http://www.w3.org/2000/svg">
<path d="M8.08334 0C10.2694 0 12.0417 1.77221 12.0417 3.95833V13.4583C12.0417 16.5189 9.56059 19 6.5 19C3.43943 19 0.958336 16.5189 0.958336 13.4583V7.125H2.54167V13.4583C2.54167 15.6444 4.31388 17.4167 6.5 17.4167C8.68611 17.4167 10.4583 15.6444 10.4583 13.4583V3.95833C10.4583 2.64666 9.39505 1.58333 8.08334 1.58333C6.77162 1.58333 5.70834 2.64666 5.70834 3.95833V13.4583C5.70834 13.8956 6.06276 14.25 6.5 14.25C6.93724 14.25 7.29167 13.8956 7.29167 13.4583V4.75H8.875V13.4583C8.875 14.77 7.81171 15.8333 6.5 15.8333C5.18829 15.8333 4.125 14.77 4.125 13.4583V3.95833C4.125 1.77221 5.89723 0 8.08334 0Z" fill="black"/>
</svg>
