<svg width="18" height="14" viewBox="0 0 18 14" fill="none" xmlns="http://www.w3.org/2000/svg">
<path d="M16.875 0.625H1.125C0.826631 0.625 0.540483 0.743526 0.329505 0.954505C0.118526 1.16548 0 1.45163 0 1.75L0 12.25C0 12.5484 0.118526 12.8345 0.329505 13.0455C0.540483 13.2565 0.826631 13.375 1.125 13.375H16.875C17.1734 13.375 17.4595 13.2565 17.6705 13.0455C17.8815 12.8345 18 12.5484 18 12.25V1.75C18 1.45163 17.8815 1.16548 17.6705 0.954505C17.4595 0.743526 17.1734 0.625 16.875 0.625ZM16.635 1.375L9 7.2775L1.365 1.375H16.635ZM0.75 12.0963V1.8475L6.52875 6.31375L0.75 12.0963ZM1.27875 12.625L7.125 6.77875L8.7675 8.05C8.83307 8.10048 8.9135 8.12785 8.99625 8.12785C9.079 8.12785 9.15943 8.10048 9.225 8.05L10.875 6.77875L16.7213 12.625H1.27875ZM17.25 12.0963L11.4713 6.31375L17.25 1.8475V12.0963Z" fill="black"/>
</svg>
