<svg width="16" height="15" viewBox="0 0 16 15" fill="none" xmlns="http://www.w3.org/2000/svg">
<path d="M11.3983 7.40667C12.1251 6.61945 12.5714 5.58278 12.5714 4.44444C12.5714 1.99389 10.5206 0 8 0C5.47943 0 3.42857 1.99389 3.42857 4.44444C3.42857 6.895 5.47943 8.88889 8 8.88889C8.88857 8.88889 9.716 8.63722 10.4189 8.20889C12.9046 9.11944 14.616 11.3311 14.8337 13.8889H1.16686C1.31486 12.1672 2.14571 10.5617 3.49714 9.41611C3.73543 9.21444 3.76 8.86389 3.55257 8.63222C3.34571 8.40111 2.98457 8.37667 2.74629 8.57833C1.00057 10.0572 0 12.195 0 14.4444C0 14.7517 0.256 15 0.571429 15H15.4286C15.7446 15 16 14.7517 16 14.4444C16 11.3967 14.1829 8.675 11.3983 7.40667ZM4.57143 4.44444C4.57143 2.60611 6.10914 1.11111 8 1.11111C9.89086 1.11111 11.4286 2.60611 11.4286 4.44444C11.4286 6.28278 9.89086 7.77778 8 7.77778C6.10914 7.77778 4.57143 6.28278 4.57143 4.44444Z" fill="black"/>
</svg>
