<svg width="22" height="12" viewBox="0 0 22 12" fill="none" xmlns="http://www.w3.org/2000/svg">
<path d="M15.5 0.749925C15.4297 0.819647 15.3739 0.902598 15.3358 0.993992C15.2978 1.08539 15.2782 1.18342 15.2782 1.28242C15.2782 1.38143 15.2978 1.47946 15.3358 1.57086C15.3739 1.66225 15.4297 1.7452 15.5 1.81492L18.95 5.26493H1.29501C1.0961 5.26493 0.905336 5.34394 0.764683 5.48459C0.624031 5.62525 0.545013 5.81601 0.545013 6.01493C0.545013 6.21384 0.624031 6.4046 0.764683 6.54525C0.905336 6.68591 1.0961 6.76493 1.29501 6.76493H18.935L15.5 10.1924C15.3603 10.3329 15.2819 10.523 15.2819 10.7212C15.2819 10.9193 15.3603 11.1094 15.5 11.2499C15.6405 11.3896 15.8306 11.468 16.0288 11.468C16.2269 11.468 16.417 11.3896 16.5575 11.2499L21.3275 6.47992C21.3917 6.41833 21.4428 6.34439 21.4777 6.26254C21.5126 6.1807 21.5306 6.09265 21.5306 6.00367C21.5306 5.9147 21.5126 5.82665 21.4777 5.74481C21.4428 5.66296 21.3917 5.58902 21.3275 5.52742L16.565 0.749925C16.4953 0.679629 16.4123 0.623833 16.3209 0.585757C16.2296 0.54768 16.1315 0.528076 16.0325 0.528076C15.9335 0.528076 15.8355 0.54768 15.7441 0.585757C15.6527 0.623833 15.5697 0.679629 15.5 0.749925Z" fill="white"/>
</svg>
