<svg width="18" height="18" viewBox="0 0 18 18" fill="none" xmlns="http://www.w3.org/2000/svg">
<path d="M4.78125 8.06563H4.83125V8.01562V4.35938C4.83125 2.06668 6.7073 0.190625 9 0.190625C11.2927 0.190625 13.1687 2.06668 13.1687 4.35938V8.01562V8.06563H13.2188H15.9812V17.8094H2.15938V8.06563H4.78125ZM12.0938 8.06563H12.1438V8.01562V4.35938C12.1438 2.6302 10.7292 1.21563 9 1.21563C7.27082 1.21563 5.85625 2.6302 5.85625 4.35938V8.01562V8.06563H5.90625H12.0938ZM14.9563 9.14062V9.09062H14.9062H3.23438H3.18438V9.14062V16.7344V16.7844H3.23438H14.9062H14.9563V16.7344V9.14062Z" fill="black" stroke="white" stroke-width="0.1"/>
<path d="M8.4875 14.4344V11.4406H9.5125V14.4344H8.4875Z" fill="black" stroke="white" stroke-width="0.1"/>
</svg>
