<svg width="16" height="14" viewBox="0 0 16 14" fill="none" xmlns="http://www.w3.org/2000/svg">
<path d="M10.0966 9.39825V8.89825H9.59664H5.55745C5.48915 8.89825 5.41883 8.86998 5.36647 8.82159C5.31472 8.77376 5.29832 8.72427 5.29832 8.68875V5.33396C5.29832 5.29918 5.31457 5.24936 5.36696 5.20091C5.41985 5.15199 5.49041 5.12377 5.55817 5.12377H9.59735H10.0974V4.62377V1.95714C10.0974 1.9519 10.0978 1.94849 10.0981 1.94664C10.0984 1.9448 10.0987 1.94394 10.0987 1.94379C10.0988 1.94373 10.0988 1.94369 10.0988 1.94368L10.0988 1.94367L10.0989 1.94348L10.0994 1.94276C10.1017 1.93992 10.1124 1.9289 10.1369 1.92025C10.1619 1.91149 10.1873 1.91025 10.2055 1.91352C10.2147 1.91518 10.2193 1.91734 10.2209 1.91832L10.2266 1.92419L10.2331 1.93048L15.4776 6.96284C15.4776 6.96288 15.4777 6.96293 15.4777 6.96298C15.4825 6.96756 15.4882 6.97517 15.4929 6.98615C15.4976 6.9971 15.4997 7.00795 15.5 7.01647L15.495 7.02035L15.477 7.03772L10.2335 12.0905C10.2334 12.0906 10.2333 12.0907 10.2332 12.0908C10.2292 12.0945 10.2271 12.0959 10.2266 12.0962C10.2262 12.0964 10.2258 12.0967 10.2245 12.0971C10.2224 12.0979 10.2093 12.1023 10.1772 12.1023C10.1585 12.1023 10.142 12.1023 10.1245 12.1013C10.1151 12.0932 10.1096 12.0863 10.1066 12.0818C10.1014 12.0741 10.0966 12.064 10.0966 12.0436V9.39825Z" stroke="black"/>
<path d="M0.15 11.2047V2.79601C0.15 2.06942 0.463067 1.43936 0.975713 0.9245C1.48422 0.434984 2.1389 0.15 2.90156 0.15H7.12568V1.61376H2.90156C2.22127 1.61376 1.68035 2.12717 1.68035 2.79601V11.2047C1.68035 11.8688 2.21715 12.4083 2.90156 12.4083H7.12568V13.85H2.90156C2.13589 13.85 1.48206 13.5849 0.975708 13.0975C0.464052 12.5836 0.15 11.9325 0.15 11.2047Z" fill="black" stroke="white" stroke-width="0.3"/>
</svg>
