<svg width="14" height="14" viewBox="0 0 14 14" fill="none" xmlns="http://www.w3.org/2000/svg">
<g clip-path="url(#clip0_2_246)">
<path d="M4.4004 11.3012V11.2512H4.3504H1.7254C0.788222 11.2512 0.0254028 10.5111 0.0254028 9.57578V1.72539C0.0254028 0.814206 0.788689 0.05 1.7254 0.05H12.2254C13.1849 0.05 13.9254 0.813773 13.926 1.72542V9.57578C13.926 10.487 13.1627 11.2512 12.2259 11.2512H8.28845H8.27178L8.25845 11.2612L4.84394 13.8222C4.84382 13.8223 4.84371 13.8224 4.84359 13.8225C4.65522 13.9581 4.4004 13.8255 4.4004 13.5975V11.3012ZM1.75001 10.1125H5.63751V11.7031V11.8031L5.71751 11.7431L7.89168 10.1125H12.25C12.5169 10.1125 12.7375 9.89187 12.7375 9.625V1.75C12.7375 1.48313 12.5169 1.2625 12.25 1.2625H1.75001C1.48314 1.2625 1.26251 1.48313 1.26251 1.75V9.625C1.26251 9.89187 1.48314 10.1125 1.75001 10.1125Z" fill="white" stroke="black" stroke-width="0.1"/>
</g>
<defs>
<clipPath id="clip0_2_246">
<rect width="14" height="14" fill="white"/>
</clipPath>
</defs>
</svg>
