<svg width="24" height="24" viewBox="0 0 24 24" fill="none" xmlns="http://www.w3.org/2000/svg">
<g clip-path="url(#clip0_2_557)">
<path d="M15.75 6C15.75 3.92893 14.0711 2.25 12 2.25C9.92893 2.25 8.25 3.92893 8.25 6V12C8.25 14.0711 9.92893 15.75 12 15.75C14.0711 15.75 15.75 14.0711 15.75 12V6Z" stroke="#444746" stroke-width="1.6" stroke-linecap="round" stroke-linejoin="round"/>
<path d="M12 18.75V21.75" stroke="#444746" stroke-width="1.6" stroke-linecap="round" stroke-linejoin="round"/>
<path d="M18.7126 12.75C18.518 14.3936 17.7272 15.9087 16.49 17.0081C15.2528 18.1075 13.6552 18.7147 12.0001 18.7147C10.345 18.7147 8.74744 18.1075 7.51024 17.0081C6.27303 15.9087 5.48218 14.3936 5.2876 12.75" stroke="#444746" stroke-width="1.6" stroke-linecap="round" stroke-linejoin="round"/>
</g>
<defs>
<clipPath id="clip0_2_557">
<rect width="24" height="24" fill="white"/>
</clipPath>
</defs>
</svg>
