<svg width="15" height="18" viewBox="0 0 15 18" fill="none" xmlns="http://www.w3.org/2000/svg">
<path d="M14.1946 13.8834L14.1946 13.8834C14.5401 14.4976 14.5781 15.2487 14.3802 15.8352C14.1812 16.4248 13.7986 16.7349 13.3623 16.7349H13.3538H13.3452H13.3366H13.3279H13.3191H13.3103H13.3015H13.2925H13.2836H13.2745H13.2654H13.2563H13.2471H13.2378H13.2285H13.2191H13.2097H13.2002H13.1907H13.1811H13.1715H13.1618H13.152H13.1422H13.1324H13.1225H13.1125H13.1025H13.0925H13.0824H13.0722H13.062H13.0518H13.0415H13.0311H13.0207H13.0103H12.9998H12.9892H12.9786H12.968H12.9573H12.9466H12.9358H12.925H12.9141H12.9032H12.8922H12.8812H12.8701H12.859H12.8479H12.8367H12.8255H12.8142H12.8029H12.7916H12.7802H12.7687H12.7572H12.7457H12.7342H12.7226H12.7109H12.6992H12.6875H12.6757H12.6639H12.6521H12.6402H12.6283H12.6163H12.6043H12.5923H12.5802H12.5681H12.556H12.5438H12.5316H12.5193H12.5071H12.4947H12.4824H12.47H12.4576H12.4451H12.4326H12.4201H12.4075H12.3949H12.3823H12.3697H12.357H12.3442H12.3315H12.3187H12.3059H12.2931H12.2802H12.2673H12.2543H12.2414H12.2284H12.2154H12.2023H12.1893H12.1761H12.163H12.1499H12.1367H12.1235H12.1102H12.097H12.0837H12.0704H12.057H12.0437H12.0303H12.0169H12.0034H11.99H11.9765H11.963H11.9494H11.9359H11.9223H11.9087H11.8951H11.8815H11.8678H11.8541H11.8404H11.8267H11.813H11.7992H11.7854H11.7716H11.7578H11.744H11.7301H11.7162H11.7024H11.6885H11.6745H11.6606H11.6466H11.6327H11.6187H11.6047H11.5907H11.5766H11.5626H11.5485H11.5345H11.5204H11.5063H11.4922H11.478H11.4639H11.4497H11.4356H11.4214H11.4072H11.393H11.3788H11.3646H11.3504H11.3361H11.3219H11.3076H11.2934H11.2791H11.2648H11.2505H11.2362H11.2219H11.2076H11.1933H11.179H11.1647H11.1503H11.136H11.1216H11.1073H11.0929H11.0786H11.0642H11.0498H11.0355H11.0211H11.0067H10.9923H10.978H10.9636H10.9492H10.9348H10.9204H10.906H10.8916H10.8772H10.8628H10.8485H10.8341H10.8197H10.8053H10.7909H10.7765H10.7621H10.7478H10.7334H10.719H10.7046H10.6903H10.6759H10.6615H10.6472H10.6328H10.6185H10.6042H10.5898H10.5755H10.5612H10.5469H10.5326H10.5183H10.504H10.4897H10.4754H10.4611H10.4469H10.4326H10.4184H10.4041H10.3899H10.3757H10.3615H10.3473H10.3331H10.319H10.3048H10.2907H10.2765H10.2624H10.2483H10.2342H10.2201H10.206H10.192H10.1779H10.1639H10.1499H10.1359H10.1219H10.108H10.094H10.0801H10.0662H10.0523H10.0384H10.0245H10.0107H9.99683H9.98302H9.96923H9.95546H9.9417H9.92797H9.91425H9.90056H9.88688H9.87323H9.8596H9.84599H9.8324H9.81883H9.80528H9.79176H9.77826H9.76478H9.75133H9.7379H9.72449H9.71111H9.69775H9.68442H9.67111H9.65783H9.64457H9.63134H9.61814H9.60496H9.59181H9.57869H9.56559H9.55253H9.53949H9.52648H9.51349H9.50054H9.48762H9.47472H9.46186H9.44902H9.43622H9.42344H9.4107H9.39799H9.38531H9.37266H9.36005H9.34747H9.33492H9.3224H9.30992H9.29747H9.28505H9.27267H9.26032H9.24801H9.23574H9.2235H9.21129H9.19912H9.18699H9.17489H9.16283H9.15081H9.13883H9.12688H9.11497H9.1031H9.09127H9.07948H9.06773H9.05601H9.04434H9.03271H9.02111H9.00956H8.99805H8.98658H8.97516H8.96377H8.95243H8.94113H8.92987H8.91865H8.90748H8.89636H8.88527H8.87423H8.86324H8.85229H8.84139H8.83053H8.81971H8.80895H8.79823H8.78755H8.77693H8.76635H8.75582H8.74533H8.7349H8.72451H8.71417H8.70388H8.69364H8.68345H8.67331H8.66322H8.65318H8.6432H8.63326H8.62337H8.61354H8.60376H8.59403H8.58435H8.57473H8.56515H8.55564H8.54617H8.53676H8.52741H8.51811H8.50886H8.49967H8.49054H8.48146H8.47244H8.46347H8.45456H8.44571H8.43691H8.42818H8.4195H8.41087H8.40231H8.39381H8.38536H8.37698H8.36865H8.36039H8.35218H8.34404H8.33595H8.32793H8.31997H8.31207H8.30423H8.29646H8.28875H8.2811H8.27351H8.26599H8.25853H8.25113H8.2438H8.23654H8.22934H8.2222H8.21514H8.20813H8.20119H8.19432H8.18752H8.18078H8.17411H8.16751H8.16098H8.15451H8.14812H8.14179H8.13553H8.12934H8.12322H8.11717H8.11119H8.10528H8.09944H8.09368H8.08798H8.08236H8.07681H8.07133H8.06593H8.06059H8.05533H8.05015H8.04503H8.04H8.03503H8.03015H8.02533H8.02059H8.01593H8.01134H8.00683H8.0024H7.99804H7.99376H7.98956H7.98544H7.98139H7.97742H7.97353H7.96972H7.96599H7.96234H7.95877H7.95527H7.95186H7.94853H7.94528H7.94211H7.93903H7.93602H7.9331H7.93026H7.9275H7.92482H7.92223H7.91972H7.9173H7.91496H7.91271H7.91054H7.90845H7.90645H7.90454H7.90271H7.90097H7.89931H7.89774H7.89626H7.89487H7.89356H7.89234H7.89121H7.89017H7.88922H7.88836H7.88759H7.8869H7.88631H7.88581H7.8854H7.88507H7.88484H7.88471L7.88466 17.2349L7.88461 16.7349H7.88448H7.88425H7.88393H7.88351H7.88301H7.88242H7.88173H7.88096H7.8801H7.87915H7.87811H7.87698H7.87576H7.87445H7.87306H7.87158H7.87001H7.86835H7.86661H7.86478H7.86287H7.86087H7.85878H7.85661H7.85436H7.85202H7.84959H7.84708H7.84449H7.84182H7.83906H7.83622H7.8333H7.83029H7.8272H7.82403H7.82078H7.81745H7.81404H7.81055H7.80697H7.80332H7.79959H7.79578H7.79189H7.78792H7.78387H7.77975H7.77555H7.77127H7.76691H7.76248H7.75796H7.75338H7.74871H7.74398H7.73916H7.73427H7.72931H7.72427H7.71916H7.71397H7.70871H7.70338H7.69797H7.69249H7.68694H7.68132H7.67562H7.66986H7.66402H7.65811H7.65213H7.64608H7.63996H7.63377H7.62751H7.62118H7.61478H7.60832H7.60178H7.59518H7.58851H7.58177H7.57497H7.5681H7.56116H7.55415H7.54708H7.53995H7.53275H7.52548H7.51815H7.51076H7.5033H7.49577H7.48819H7.48054H7.47282H7.46505H7.45721H7.44931H7.44135H7.43332H7.42524H7.41709H7.40889H7.40062H7.3923H7.38391H7.37546H7.36696H7.3584H7.34977H7.34109H7.33236H7.32356H7.31471H7.3058H7.29683H7.28781H7.27873H7.26959H7.2604H7.25115H7.24185H7.2325H7.22309H7.21362H7.2041H7.19453H7.18491H7.17523H7.1655H7.15571H7.14588H7.13599H7.12605H7.11606H7.10602H7.09593H7.08579H7.0756H7.06536H7.05507H7.04473H7.03434H7.02391H7.01342H7.00289H6.99231H6.98168H6.97101H6.96029H6.94952H6.9387H6.92785H6.91694H6.90599H6.89499H6.88395H6.87287H6.86174H6.85057H6.83935H6.8281H6.81679H6.80545H6.79406H6.78263H6.77116H6.75965H6.7481H6.73651H6.72487H6.7132H6.70148H6.68973H6.67794H6.66611H6.65423H6.64233H6.63038H6.61839H6.60637H6.59431H6.58221H6.57008H6.55791H6.5457H6.53346H6.52118H6.50887H6.49652H6.48414H6.47172H6.45927H6.44679H6.43427H6.42172H6.40914H6.39652H6.38387H6.37119H6.35848H6.34574H6.33296H6.32016H6.30732H6.29445H6.28156H6.26863H6.25568H6.24269H6.22968H6.21664H6.20357H6.19048H6.17735H6.1642H6.15102H6.13782H6.12459H6.11133H6.09805H6.08474H6.0714H6.05805H6.04466H6.03126H6.01782H6.00437H5.99089H5.97739H5.96387H5.95032H5.93675H5.92316H5.90955H5.89591H5.88226H5.86858H5.85489H5.84117H5.82744H5.81368H5.7999H5.78611H5.7723H5.75847H5.74462H5.73075H5.71687H5.70297H5.68905H5.67512H5.66117H5.6472H5.63322H5.61922H5.60521H5.59118H5.57714H5.56308H5.54901H5.53492H5.52083H5.50672H5.49259H5.47846H5.46431H5.45015H5.43598H5.4218H5.4076H5.3934H5.37918H5.36496H5.35073H5.33648H5.32223H5.30797H5.2937H5.27942H5.26513H5.25084H5.23653H5.22222H5.20791H5.19359H5.17926H5.16492H5.15058H5.13624H5.12189H5.10753H5.09317H5.07881H5.06444H5.05007H5.03569H5.02131H5.00693H4.99255H4.97816H4.96378H4.94939H4.935H4.92061H4.90622H4.89182H4.87743H4.86304H4.84865H4.83426H4.81987H4.80548H4.7911H4.77672H4.76233H4.74796H4.73358H4.71921H4.70484H4.69047H4.67611H4.66175H4.6474H4.63306H4.61871H4.60438H4.59005H4.57572H4.5614H4.54709H4.53279H4.51849H4.5042H4.48992H4.47565H4.46139H4.44713H4.43288H4.41865H4.40442H4.3902H4.376H4.3618H4.34761H4.33344H4.31928H4.30513H4.29099H4.27686H4.26275H4.24865H4.23456H4.22048H4.20642H4.19238H4.17835H4.16433H4.15033H4.13634H4.12237H4.10841H4.09448H4.08055H4.06665H4.05276H4.03889H4.02504H4.0112H3.99738H3.98358H3.9698H3.95604H3.9423H3.92858H3.91488H3.9012H3.88754H3.8739H3.86028H3.84669H3.83311H3.81956H3.80603H3.79252H3.77904H3.76557H3.75214H3.73872H3.72533H3.71197H3.69863H3.68531H3.67202H3.65876H3.64552H3.63231H3.61912H3.60597H3.59283H3.57973H3.56665H3.55361H3.54059H3.52759H3.51463H3.5017H3.4888H3.47592H3.46308H3.45026H3.43748H3.42473H3.41201H3.39932H3.38666H3.37404H3.36145H3.34889H3.33636H3.32387H3.31141H3.29898H3.28659H3.27423H3.26191H3.24963H3.23737H3.22516H3.21298H3.20084H3.18873H3.17666H3.16463H3.15263H3.14067H3.12875H3.11687H3.10503H3.09323H3.08146H3.06974H3.05805H3.04641H3.0348H3.02324H3.01172H3.00024H2.9888H2.9774H2.96604H2.95473H2.94346H2.93223H2.92105H2.90991H2.89881H2.88776H2.87675H2.86579H2.85488H2.844H2.83318H2.8224H2.81166H2.80098H2.79034H2.77974H2.7692H2.7587H2.74825H2.73785H2.7275H2.7172H2.70694H2.69674H2.68658H2.67648H2.66643H2.65642H2.64647H2.63657H2.62672H2.61693H2.60718H2.59749H2.58785H2.57826H2.56873H2.55925H2.54983H2.54046H2.53114H2.52188H2.51267H2.50352H2.49443H2.48539H2.47641H2.46748H2.45862H2.4498H2.44105H2.43236H2.42372H2.41514H2.40662C1.9703 16.7349 1.5877 16.4248 1.38872 15.8352C1.19078 15.2487 1.22878 14.4976 1.57429 13.8834L1.57435 13.8833C2.14004 12.8772 3.03305 11.7708 4.44281 11.0907C5.43878 11.7233 6.61935 12.0912 7.88463 12.0912C9.14929 12.0912 10.3298 11.7232 11.3257 11.0907C12.7355 11.7708 13.6285 12.8771 14.1946 13.8834Z" stroke="black"/>
<path d="M11.864 5.70252C11.864 7.90026 10.0827 9.68209 7.88481 9.68209C5.68648 9.68209 3.90491 7.90018 3.90491 5.70256V4.62947C3.90491 2.43181 5.68645 0.649902 7.88481 0.649902C10.0827 0.649902 11.864 2.43173 11.864 4.62943V5.70252Z" stroke="black"/>
</svg>
