<svg width="14" height="16" viewBox="0 0 14 16" fill="none" xmlns="http://www.w3.org/2000/svg">
<path d="M3.60569 13.8378H2.33309C1.7477 13.8378 1.27259 13.3535 1.27259 12.7568V2.37838C1.27259 1.78162 1.7477 1.2973 2.33309 1.2973H5.51458V5.40541C5.51458 5.76 5.80303 6.05405 6.15088 6.05405H10.2232C10.308 6.30486 10.5371 6.48649 10.8171 6.48649C11.1649 6.48649 11.4534 6.19243 11.4534 5.83784V5.40541C11.4534 5.31892 11.4364 5.23243 11.4025 5.15459C11.3685 5.07676 11.3261 5.00757 11.2667 4.94703L6.60053 0.19027C6.54114 0.12973 6.47327 0.0864864 6.39691 0.0518918C6.32055 0.0172972 6.23571 0 6.15088 0H2.33309C1.04353 0 0 1.06378 0 2.37838V12.7568C0 14.0714 1.04353 15.1351 2.33309 15.1351H3.60569C3.95353 15.1351 4.24198 14.8411 4.24198 14.4865C4.24198 14.1319 3.95353 13.8378 3.60569 13.8378ZM6.78717 2.21405L9.28146 4.75676H6.78717V2.21405ZM13.4556 7.45514C13.1332 7.12649 12.6581 6.92757 12.166 6.91892C11.657 6.89297 11.1734 7.09189 10.851 7.42919L5.42974 12.9643C5.31945 13.0768 5.26006 13.2151 5.24309 13.3708L5.09038 15.2995C5.07341 15.4897 5.14128 15.68 5.27703 15.8097C5.3958 15.9308 5.557 16 5.72668 16C5.74365 16 5.76061 16 5.78606 16L7.69496 15.8184C7.83918 15.8011 7.98341 15.7405 8.08522 15.6281L13.5065 10.093C14.1852 9.40973 14.1597 8.17297 13.4556 7.45514ZM12.6072 9.17622L7.34711 14.547L6.42236 14.6335L6.49023 13.7168L11.7503 8.34595C11.8351 8.25946 11.9878 8.22486 12.1406 8.21622C12.3102 8.21622 12.4629 8.27676 12.5563 8.37189C12.7599 8.57081 12.7853 8.99459 12.6072 9.17622Z" fill="white"/>
</svg>
