<svg width="28" height="28" viewBox="0 0 28 28" fill="none" xmlns="http://www.w3.org/2000/svg">
<path d="M8.74776 21.6043C8.6546 21.511 8.58955 21.3935 8.56001 21.265C8.53047 21.1365 8.53764 21.0023 8.5807 20.8778L11.0477 13.7372L8.58037 6.59696C8.53601 6.46824 8.52998 6.32942 8.56301 6.19733C8.59603 6.06526 8.66669 5.9456 8.76641 5.85291C8.86612 5.76021 8.9906 5.69846 9.12474 5.67515C9.25888 5.65183 9.39689 5.66797 9.52204 5.72158L26.8075 13.0905C26.9344 13.1445 27.0426 13.2346 27.1187 13.3497C27.1948 13.4647 27.2353 13.5996 27.2353 13.7375C27.2353 13.8754 27.1948 14.0103 27.1187 14.1254C27.0426 14.2404 26.9344 14.3305 26.8075 14.3845L9.52071 21.7541C9.39545 21.8075 9.25739 21.8233 9.1233 21.7997C8.9892 21.7761 8.86485 21.7141 8.76532 21.6212L8.74776 21.6043ZM10.4256 7.6374L12.4534 13.5101C12.5049 13.659 12.5049 13.8207 12.4534 13.9695L10.4256 19.8423L24.7392 13.7349L10.4256 7.6374Z" fill="#444746" stroke="#444746" stroke-width="0.3"/>
<path d="M11.2944 14.2343C11.196 14.136 11.1291 14.0107 11.102 13.8743C11.0749 13.7379 11.0889 13.5965 11.1421 13.468C11.1954 13.3395 11.2855 13.2298 11.4012 13.1525C11.5168 13.0753 11.6528 13.0341 11.7919 13.0341L26.5317 13.0341C26.6241 13.0342 26.7155 13.0524 26.8008 13.0877C26.8861 13.1231 26.9636 13.1749 27.0289 13.2402C27.0942 13.3055 27.146 13.3831 27.1813 13.4684C27.2166 13.5537 27.2348 13.6451 27.2348 13.7375C27.2347 13.8298 27.2165 13.9213 27.1812 14.0066C27.1458 14.0919 27.094 14.1694 27.0287 14.2347C26.9634 14.3 26.8858 14.3517 26.8005 14.387C26.7152 14.4224 26.6237 14.4405 26.5314 14.4405L11.7902 14.4418C11.604 14.4411 11.4256 14.3665 11.2944 14.2343Z" fill="#444746" stroke="#444746" stroke-width="0.3"/>
</svg>
